<?xml version="1.0" encoding="UTF-8" standalone="no"?>
<!DOCTYPE svg PUBLIC "-//W3C//DTD SVG 1.1//EN" "http://www.w3.org/Graphics/SVG/1.1/DTD/svg11.dtd">
<svg width="100%" height="100%" viewBox="0 0 480 480" version="1.1" xmlns="http://www.w3.org/2000/svg" xmlns:xlink="http://www.w3.org/1999/xlink" xml:space="preserve" xmlns:serif="http://www.serif.com/" style="fill-rule:evenodd;clip-rule:evenodd;stroke-linecap:round;stroke-linejoin:round;stroke-miterlimit:1.5;">
    <rect x="48" y="48" width="384" height="384" style="fill:none;stroke:#010000;stroke-width:20px;"/>
    <path d="M48,247.5c-4.139,-0 -7.5,-3.361 -7.5,-7.5c0,-4.139 3.361,-7.5 7.5,-7.5l8,0c4.139,0 7.5,3.361 7.5,7.5c0,4.139 -3.361,7.5 -7.5,7.5l-8,0Zm40,0c-4.139,0 -7.5,-3.361 -7.5,-7.5c0,-4.139 3.361,-7.5 7.5,-7.5l16,0c4.139,0 7.5,3.361 7.5,7.5c0,4.139 -3.361,7.5 -7.5,7.5l-16,0Zm48,0c-4.139,0 -7.5,-3.361 -7.5,-7.5c0,-4.139 3.361,-7.5 7.5,-7.5l16,0c4.139,0 7.5,3.361 7.5,7.5c0,4.139 -3.361,7.5 -7.5,7.5l-16,0Zm48,0c-4.139,0 -7.5,-3.361 -7.5,-7.5c0,-4.139 3.361,-7.5 7.5,-7.5l16,0c4.139,0 7.5,3.361 7.5,7.5c0,4.139 -3.361,7.5 -7.5,7.5l-16,0Zm48,0c-4.139,0 -7.5,-3.361 -7.5,-7.5c0,-4.139 3.361,-7.5 7.5,-7.5l16,0c4.139,0 7.5,3.361 7.5,7.5c0,4.139 -3.361,7.5 -7.5,7.5l-16,0Zm48,-0c-4.139,0 -7.5,-3.361 -7.5,-7.5c0,-4.139 3.361,-7.5 7.5,-7.5l16,0c4.139,0 7.5,3.361 7.5,7.5c0,4.139 -3.361,7.5 -7.5,7.5l-16,0Zm48,0c-4.139,0 -7.5,-3.361 -7.5,-7.5c0,-4.139 3.361,-7.5 7.5,-7.5l16,-0c4.139,-0 7.5,3.361 7.5,7.5c0,4.139 -3.361,7.5 -7.5,7.5l-16,0Zm48,-0c-4.139,0 -7.5,-3.361 -7.5,-7.5c0,-4.139 3.361,-7.5 7.5,-7.5l16,-0c4.139,-0 7.5,3.361 7.5,7.5c0,4.139 -3.361,7.5 -7.5,7.5l-16,0Zm48,0c-4.139,0 -7.5,-3.361 -7.5,-7.5c0,-4.139 3.361,-7.5 7.5,-7.5l8,0c4.139,-0 7.5,3.361 7.5,7.5c0,4.139 -3.361,7.5 -7.5,7.5l-8,-0Z" style="fill:#010000;"/>
    <path d="M232.5,48c-0,-4.139 3.361,-7.5 7.5,-7.5c4.139,-0 7.5,3.361 7.5,7.5l0,8c0,4.139 -3.361,7.5 -7.5,7.5c-4.139,0 -7.5,-3.361 -7.5,-7.5l0,-8Zm0,40c0,-4.139 3.361,-7.5 7.5,-7.5c4.139,0 7.5,3.361 7.5,7.5l0,16c0,4.139 -3.361,7.5 -7.5,7.5c-4.139,0 -7.5,-3.361 -7.5,-7.5l0,-16Zm0,48c0,-4.139 3.361,-7.5 7.5,-7.5c4.139,0 7.5,3.361 7.5,7.5l0,16c0,4.139 -3.361,7.5 -7.5,7.5c-4.139,0 -7.5,-3.361 -7.5,-7.5l0,-16Zm0,48c0,-4.139 3.361,-7.5 7.5,-7.5c4.139,0 7.5,3.361 7.5,7.5l0,16c0,4.139 -3.361,7.5 -7.5,7.5c-4.139,0 -7.5,-3.361 -7.5,-7.5l0,-16Zm0,48c0,-4.139 3.361,-7.5 7.5,-7.5c4.139,0 7.5,3.361 7.5,7.5l0,16c0,4.139 -3.361,7.5 -7.5,7.5c-4.139,0 -7.5,-3.361 -7.5,-7.5l0,-16Zm-0,48c0,-4.139 3.361,-7.5 7.5,-7.5c4.139,0 7.5,3.361 7.5,7.5l0,16c0,4.139 -3.361,7.5 -7.5,7.5c-4.139,0 -7.5,-3.361 -7.5,-7.5l0,-16Zm0,48c0,-4.139 3.361,-7.5 7.5,-7.5c4.139,0 7.5,3.361 7.5,7.5l-0,16c0,4.139 -3.361,7.5 -7.5,7.5c-4.139,0 -7.5,-3.361 -7.5,-7.5l0,-16Zm-0,48c0,-4.139 3.361,-7.5 7.5,-7.5c4.139,0 7.5,3.361 7.5,7.5l0,16c0,4.139 -3.361,7.5 -7.5,7.5c-4.139,0 -7.5,-3.361 -7.5,-7.5l0,-16Zm-0,48c-0,-4.139 3.361,-7.5 7.5,-7.5c4.139,0 7.5,3.361 7.5,7.5l0,8c-0,4.139 -3.361,7.5 -7.5,7.5c-4.139,-0 -7.5,-3.361 -7.5,-7.5l-0,-8Z" style="fill:#010000;"/>
</svg>
