<?xml version="1.0" encoding="UTF-8" standalone="no"?>
<!DOCTYPE svg PUBLIC "-//W3C//DTD SVG 1.1//EN" "http://www.w3.org/Graphics/SVG/1.1/DTD/svg11.dtd">
<svg width="100%" height="100%" viewBox="0 0 480 480" version="1.1" xmlns="http://www.w3.org/2000/svg" xmlns:xlink="http://www.w3.org/1999/xlink" xml:space="preserve" xmlns:serif="http://www.serif.com/" style="fill-rule:evenodd;clip-rule:evenodd;stroke-linecap:round;stroke-linejoin:round;stroke-miterlimit:1.5;">
    <path d="M358.299,246.425l0,73.701l22.677,0l51.024,-48.189l0,-96.378l-25.512,-25.512l-76.535,0l62.362,62.362l-34.016,34.016Z" style="fill:#5ea3d9;"/>
    <path d="M261.921,195.402l-22.677,0l0,-124.724l-56.693,0l0,102.047l-22.677,0l0,-124.724l102.047,0l0,147.402Z" style="fill:#010000;"/>
    <path d="M193.89,342.803l-106.906,-113.386l163.599,-158.74l141.732,141.732l-130.394,130.394l-68.031,-0Zm22.677,-22.677l22.677,0l107.717,-107.717l-96.378,-96.378l-118.244,113.386l84.229,90.709Z" style="fill:#010000;"/>
    <rect x="46.488" y="342.803" width="385.512" height="90.709" style="fill:#f00;stroke:#010000;stroke-width:15px;"/>
</svg>
